<svg width="240" height="99" viewBox="0 0 240 99" fill="none" xmlns="http://www.w3.org/2000/svg">
<path d="M11.764 85.7613C10.808 86.0802 9.48698 86.0352 8.57597 84.8662L6.23893 81.8603C5.58598 81.0102 4.81193 80.8892 3.74998 80.8742V83.8182C3.74998 84.8813 4.47795 85.0633 5.44993 85.1852C5.55595 85.2002 5.47996 85.7013 5.35795 85.7013H0.759931C0.637983 85.7013 0.546979 85.2002 0.667951 85.1852C1.44298 85.0782 1.92796 84.7743 1.92796 83.8182V77.0492C1.92796 76.0472 1.39695 75.7582 0.667951 75.5612C0.546979 75.5312 0.622968 75.0302 0.759931 75.0453C1.35093 75.1212 2.01896 75.1363 2.50499 75.1363C3.62797 75.1363 4.67497 75.0453 5.40397 75.0453C7.69597 75.0453 9.22899 75.9862 9.22899 77.8532C9.22899 79.6142 7.80198 80.4792 6.52696 80.5542V80.6313C7.13395 80.6313 7.57493 80.8892 8.24296 81.7242L10.5039 84.5622C10.975 85.1542 11.43 85.3213 11.764 85.3213C11.8849 85.3213 11.855 85.7312 11.764 85.7613ZM7.31694 78.2632C7.31694 76.6392 6.28398 75.8352 4.93297 75.8352C4.03795 75.8352 3.74998 76.1992 3.74998 77.0492V80.1753H4.18998C6.45097 80.1753 7.31694 79.7812 7.31694 78.2632Z" fill="white"/>
<path d="M14.212 85.1852C15.093 84.9572 15.776 84.8202 15.776 83.6963V76.9582C15.776 75.9862 15.154 75.7282 14.501 75.5612C14.379 75.5312 14.455 75.0302 14.577 75.0453C15.685 75.1662 17.597 75.1363 18.523 75.1363C19.904 75.1363 20.906 75.0752 22.151 75.0453C22.515 75.0453 22.515 75.2882 22.439 75.6372L22.075 77.0792C22.029 77.2922 21.65 77.2922 21.589 77.0792C21.361 76.3362 20.906 75.9102 19.009 75.9102C17.946 75.9102 17.597 76.1833 17.597 76.9732V79.4472C17.597 79.8422 17.794 79.9172 18.098 79.9172H18.432C19.661 79.9172 20.724 79.7962 21.346 79.2353C21.498 79.0973 21.832 79.1283 21.695 79.4312L20.83 81.3442C20.709 81.6172 20.481 81.5872 20.314 81.3592C19.965 80.8742 19.191 80.6762 18.311 80.6762H18.098C17.794 80.6762 17.597 80.7522 17.597 81.1462V83.6963C17.597 84.5622 17.961 84.8813 19.221 84.8813C21.513 84.8813 22.424 83.8332 22.788 83.2572C22.894 83.0893 23.304 83.1662 23.304 83.4232C23.304 84.1972 22.651 85.7312 21.695 85.7312C20.845 85.6852 20.011 85.6392 18.736 85.6392C17.339 85.6392 15.685 85.5942 14.304 85.7312C14.152 85.7462 14.091 85.2152 14.212 85.1852Z" fill="white"/>
<path d="M29.365 81.6322V83.8182C29.365 84.8813 30.093 85.0633 31.065 85.1852C31.171 85.2002 31.095 85.7013 30.974 85.7013H26.374C26.253 85.7013 26.162 85.2002 26.283 85.1852C27.058 85.0782 27.543 84.7743 27.543 83.8182V77.0492C27.543 76.0472 27.012 75.7582 26.283 75.5612C26.162 75.5312 26.238 75.0302 26.374 75.0453C26.966 75.1212 27.634 75.1363 28.12 75.1363C29.243 75.1363 30.184 75.0453 30.958 75.0453C33.311 75.0453 35.254 75.9102 35.254 78.2932C35.254 80.9952 32.719 82.1332 29.365 81.6322ZM29.365 77.0492V80.8892C31.945 81.2533 33.296 80.6313 33.296 78.6432C33.296 76.8362 32.143 75.8352 30.579 75.8352C29.623 75.8352 29.365 76.1682 29.365 77.0492Z" fill="white"/>
<path d="M39.539 81.724V76.958C39.539 76.0011 39.053 75.682 38.31 75.5921C38.188 75.5761 38.279 75.075 38.3999 75.075H42.544C42.665 75.075 42.7569 75.5761 42.6349 75.5921C42.0279 75.667 41.4209 75.895 41.4209 76.958V81.8001C41.4209 83.924 42.6499 84.911 44.259 84.911C45.914 84.911 47.2339 83.924 47.2339 81.8001V76.958C47.2339 75.971 46.672 75.697 45.9289 75.5921C45.823 75.5761 45.899 75.075 46.0199 75.075H49.435C49.542 75.075 49.6319 75.5761 49.511 75.5921C48.904 75.667 48.297 75.895 48.297 76.958V81.708C48.297 84.5011 46.491 85.943 44.077 85.943C41.9369 85.943 39.539 84.804 39.539 81.724ZM44.001 71.296C44.2749 70.901 45.55 72.07 45.185 72.343L43.1969 73.846C43 73.997 42.4679 73.512 42.62 73.3001L44.001 71.296Z" fill="white"/>
<path d="M61.6739 82.6352C61.6739 84.5162 59.9579 85.7312 57.4239 85.7312C56.6949 85.7312 55.845 85.6392 54.722 85.6392C53.766 85.6392 53.037 85.6542 52.339 85.7312C52.203 85.7462 52.126 85.2152 52.248 85.1852C53.128 84.9572 53.811 84.8202 53.811 83.6963V76.9582C53.811 75.9862 53.189 75.7282 52.5359 75.5612C52.415 75.5312 52.491 75.0302 52.612 75.0453C53.2339 75.1212 53.9629 75.1363 54.449 75.1363C55.663 75.1363 56.558 75.0453 57.2259 75.0453C59.184 75.0453 60.793 75.8653 60.808 77.5352C60.824 78.7642 59.9579 79.6142 58.896 79.8263V79.9172C60.308 79.9172 61.6739 80.9352 61.6739 82.6352ZM55.633 76.9582V79.6592H57.196C58.289 79.6592 58.926 79.1132 58.926 77.9442C58.926 76.5022 57.955 75.8352 56.711 75.8352C55.906 75.8352 55.633 76.1082 55.633 76.9582ZM59.716 82.9682C59.716 81.2992 58.608 80.4182 57.196 80.4182H55.633V83.6963C55.633 84.5312 56.058 84.9422 57.378 84.9422C58.714 84.9422 59.716 84.5462 59.716 82.9682Z" fill="white"/>
<path d="M64.577 85.1852C65.458 84.9572 66.141 84.8202 66.141 83.6962V76.9582C66.141 75.8952 65.519 75.6822 64.866 75.5922C64.745 75.5762 64.836 75.0752 64.942 75.0752H69.131C69.237 75.0752 69.313 75.5762 69.207 75.5922C68.569 75.6672 67.962 75.8952 67.962 76.9582V83.6962C67.962 84.5622 68.327 84.8812 69.587 84.8812C71.879 84.8812 72.789 83.8332 73.153 83.2572C73.26 83.0892 73.669 83.1662 73.669 83.4232C73.669 84.1972 73.017 85.7312 72.06 85.7312C71.21 85.6852 70.376 85.6392 69.101 85.6392C67.704 85.6392 66.05 85.5942 64.669 85.7312C64.517 85.7462 64.456 85.2152 64.577 85.1852Z" fill="white"/>
<path d="M76.345 85.1852C77.1189 85.0782 77.605 84.7742 77.605 83.8182V76.9582C77.605 76.0012 77.1189 75.6972 76.345 75.5922C76.2229 75.5762 76.3139 75.0752 76.435 75.0752H80.595C80.716 75.0752 80.8069 75.5762 80.685 75.5922C80.0329 75.6822 79.4259 75.8952 79.4259 76.9582V83.8182C79.4259 84.8812 80.0329 85.0932 80.685 85.1852C80.8069 85.2002 80.716 85.7012 80.595 85.7012H76.435C76.3139 85.7012 76.2229 85.2002 76.345 85.1852Z" fill="white"/>
<path d="M83.891 80.585C83.891 77.959 85.5 74.832 89.75 74.832C91.5099 74.832 93.028 75.379 92.8459 75.91L92.649 76.502C92.102 78.126 91.5099 76.047 88.809 76.047C86.638 76.047 85.575 77.458 85.575 79.644C85.575 83.059 88.171 84.486 90.251 84.486C90.524 84.486 91.905 84.273 92.6949 83.773C92.816 83.696 93.1349 84.046 93.044 84.182C92.391 85.139 90.357 85.943 89.887 85.943C87.337 85.943 83.891 84.456 83.891 80.585Z" fill="white"/>
<path d="M106.906 85.7012H102.899C102.701 85.7012 102.686 85.2152 102.854 85.1852C103.415 85.0782 104.022 84.8812 103.461 83.5752L103.294 83.1962C103.142 82.8312 102.884 82.8012 102.429 82.8012H99.332C98.877 82.8012 98.619 82.8312 98.467 83.1962L98.315 83.5752C97.784 84.8812 98.361 85.0782 99.089 85.1852C99.286 85.2152 99.241 85.7012 99.044 85.7012H95.765C95.583 85.7012 95.537 85.2152 95.719 85.1852C96.342 85.0782 96.706 84.8662 97.268 83.5752L99.833 77.6862C100.425 76.3512 100.607 75.7282 100.607 75.1512C100.607 75.0602 101.669 74.8172 101.715 74.9242L105.419 83.5602C105.965 84.8512 106.329 85.0932 106.936 85.1852C107.149 85.2152 107.088 85.7012 106.906 85.7012ZM102.671 81.7082L100.895 77.4582L99.104 81.7082C99.013 81.9212 99.241 81.9512 99.454 81.9512H102.322C102.535 81.9512 102.762 81.9212 102.671 81.7082Z" fill="white"/>
<path d="M114.259 85.1852C115.139 84.9572 115.822 84.8202 115.822 83.6963V76.9582C115.822 75.9862 115.2 75.7282 114.547 75.5612C114.426 75.5312 114.502 75.0302 114.623 75.0453C115.245 75.1212 115.883 75.1363 116.521 75.1363C117.704 75.1363 118.767 75.0453 119.541 75.0453C123.214 75.0453 125.202 77.2312 125.202 80.1602C125.202 83.0742 123.214 85.7312 119.526 85.7312C118.797 85.7312 117.856 85.6392 116.733 85.6392C115.792 85.6392 115.048 85.6542 114.35 85.7312C114.198 85.7462 114.137 85.2152 114.259 85.1852ZM123.381 81.0252C123.381 78.1262 121.802 75.8502 119.071 75.8502C117.993 75.8502 117.644 76.1833 117.644 76.9582V83.6963C117.644 84.5162 118.205 84.9262 119.678 84.9262C122.152 84.9262 123.381 83.5902 123.381 81.0252Z" fill="white"/>
<path d="M128.501 80.449C128.501 77.382 130.687 74.832 134.011 74.832C137.183 74.832 139.49 77.154 139.49 80.312C139.49 83.393 137.32 85.943 133.98 85.943C130.823 85.943 128.501 83.606 128.501 80.449ZM137.684 81.162C137.684 78.096 135.605 75.8651 133.419 75.8651C132.083 75.8651 130.323 76.745 130.323 79.599C130.323 82.695 132.402 84.911 134.572 84.911C135.908 84.911 137.684 84.031 137.684 81.162Z" fill="white"/>
<path d="M156.01 85.7012H152.048C151.942 85.7012 151.866 85.2001 151.957 85.1851C152.595 85.0781 153.065 84.7742 153.02 83.8181L152.732 78.7181L150.272 83.7282C149.954 84.3801 149.711 85.0471 149.665 85.2902C149.635 85.4732 149.316 85.5642 149.073 85.5642C148.846 85.5642 148.694 85.4732 148.603 85.2902L145.097 78.6431L144.869 83.8181C144.823 84.8812 145.446 85.1232 145.932 85.1851C146.053 85.2001 145.962 85.7012 145.855 85.7012H142.713C142.592 85.7012 142.501 85.2001 142.622 85.1851C143.275 85.1082 143.822 84.8812 143.882 83.8181L144.368 75.1061C144.383 74.8472 144.96 74.8322 145.112 75.1061L149.513 83.3322L153.597 75.1061C153.733 74.8322 154.34 74.8472 154.355 75.1061L154.841 83.8181C154.902 84.8812 155.448 85.1082 156.086 85.1851C156.207 85.2001 156.116 85.7012 156.01 85.7012Z" fill="white"/>
<path d="M159.127 85.1852C159.901 85.0782 160.387 84.7742 160.387 83.8182V76.9582C160.387 76.0012 159.901 75.6972 159.127 75.5922C159.006 75.5762 159.097 75.0752 159.218 75.0752H163.377C163.499 75.0752 163.589 75.5762 163.468 75.5922C162.816 75.6822 162.209 75.8952 162.209 76.9582V83.8182C162.209 84.8812 162.816 85.0932 163.468 85.1852C163.589 85.2002 163.499 85.7012 163.377 85.7012H159.218C159.097 85.7012 159.006 85.2002 159.127 85.1852Z" fill="white"/>
<path d="M175.948 85.5642L168.722 78.0042V83.7732C168.722 84.8042 169.33 84.9722 170.195 85.1852C170.316 85.2152 170.256 85.7012 170.104 85.7012H166.507C166.385 85.7012 166.294 85.2302 166.431 85.1852C167.068 84.9722 167.675 84.8512 167.675 83.7732V77.8832C167.675 76.8062 167.508 76.2892 167.114 75.7582C166.977 75.5762 166.841 75.4542 166.841 75.4092C166.841 75.2732 166.932 75.0752 167.144 75.0752H168.267C168.419 75.0752 168.525 75.0902 168.632 75.2122L175.705 82.6952V76.9882C175.705 75.9102 175.022 75.7892 174.232 75.5922C174.111 75.5612 174.172 75.0752 174.324 75.0752H177.921C178.042 75.0752 178.118 75.5612 177.997 75.5922C177.329 75.7892 176.752 75.9102 176.752 76.9882V82.8932C176.752 83.8942 176.782 85.0022 176.934 85.5642C176.995 85.7922 176.752 85.8522 176.509 85.8522C176.251 85.8522 176.114 85.7462 175.948 85.5642Z" fill="white"/>
<path d="M181.037 85.1852C181.812 85.0782 182.297 84.7742 182.297 83.8182V76.9582C182.297 76.0012 181.812 75.6972 181.037 75.5922C180.916 75.5762 181.007 75.0752 181.129 75.0752H185.287C185.409 75.0752 185.5 75.5762 185.379 75.5922C184.726 75.6822 184.119 75.8952 184.119 76.9582V83.8182C184.119 84.8812 184.726 85.0932 185.379 85.1852C185.5 85.2002 185.409 85.7012 185.287 85.7012H181.129C181.007 85.7012 180.916 85.2002 181.037 85.1852Z" fill="white"/>
<path d="M188.584 80.585C188.584 77.959 190.192 74.832 194.442 74.832C196.203 74.832 197.721 75.379 197.539 75.91L197.342 76.502C196.795 78.126 196.203 76.047 193.502 76.047C191.331 76.047 190.269 77.458 190.269 79.644C190.269 83.059 192.864 84.486 194.943 84.486C195.217 84.486 196.598 84.273 197.387 83.773C197.509 83.696 197.827 84.046 197.736 84.182C197.084 85.139 195.05 85.943 194.579 85.943C192.029 85.943 188.584 84.456 188.584 80.585Z" fill="white"/>
<path d="M211.599 85.7012H207.591C207.394 85.7012 207.379 85.2152 207.546 85.1852C208.108 85.0782 208.715 84.8812 208.153 83.5752L207.986 83.1962C207.834 82.8312 207.576 82.8012 207.121 82.8012H204.025C203.569 82.8012 203.311 82.8312 203.16 83.1962L203.008 83.5752C202.476 84.8812 203.053 85.0782 203.782 85.1852C203.979 85.2152 203.934 85.7012 203.736 85.7012H200.458C200.276 85.7012 200.23 85.2152 200.412 85.1852C201.034 85.0782 201.399 84.8662 201.961 83.5752L204.526 77.6862C205.118 76.3512 205.3 75.7282 205.3 75.1512C205.3 75.0602 206.362 74.8172 206.408 74.9242L210.111 83.5602C210.658 84.8512 211.022 85.0932 211.629 85.1852C211.841 85.2152 211.781 85.7012 211.599 85.7012ZM207.364 81.7082L205.588 77.4582L203.797 81.7082C203.706 81.9212 203.934 81.9512 204.146 81.9512H207.015C207.227 81.9512 207.455 81.9212 207.364 81.7082Z" fill="white"/>
<path d="M223.959 85.5642L216.734 78.0042V83.7732C216.734 84.8042 217.341 84.9722 218.206 85.1852C218.328 85.2152 218.267 85.7012 218.115 85.7012H214.518C214.397 85.7012 214.306 85.2302 214.442 85.1852C215.079 84.9722 215.687 84.8512 215.687 83.7732V77.8832C215.687 76.8062 215.52 76.2892 215.125 75.7582C214.989 75.5762 214.852 75.4542 214.852 75.4092C214.852 75.2732 214.943 75.0752 215.156 75.0752H216.279C216.43 75.0752 216.537 75.0902 216.643 75.2122L223.716 82.6952V76.9882C223.716 75.9102 223.033 75.7892 222.244 75.5922C222.122 75.5612 222.183 75.0752 222.335 75.0752H225.932C226.054 75.0752 226.129 75.5612 226.008 75.5922C225.34 75.7892 224.764 75.9102 224.764 76.9882V82.8932C224.764 83.8942 224.794 85.0022 224.946 85.5642C225.006 85.7922 224.764 85.8522 224.521 85.8522C224.263 85.8522 224.126 85.7462 223.959 85.5642Z" fill="white"/>
<path d="M239.628 85.7012H235.621C235.423 85.7012 235.408 85.2152 235.575 85.1852C236.137 85.0782 236.744 84.8812 236.182 83.5752L236.015 83.1962C235.863 82.8312 235.605 82.8012 235.15 82.8012H232.054C231.598 82.8012 231.34 82.8312 231.189 83.1962L231.037 83.5752C230.506 84.8812 231.083 85.0782 231.811 85.1852C232.008 85.2152 231.963 85.7012 231.765 85.7012H228.487C228.305 85.7012 228.259 85.2152 228.441 85.1852C229.063 85.0782 229.428 84.8662 229.99 83.5752L232.555 77.6862C233.147 76.3512 233.329 75.7282 233.329 75.1512C233.329 75.0602 234.391 74.8172 234.437 74.9242L238.14 83.5602C238.687 84.8512 239.051 85.0932 239.658 85.1852C239.871 85.2152 239.81 85.7012 239.628 85.7012ZM235.393 81.7082L233.617 77.4582L231.826 81.7082C231.735 81.9212 231.963 81.9512 232.175 81.9512H235.044C235.256 81.9512 235.484 81.9212 235.393 81.7082Z" fill="white"/>
<path d="M0.734985 64.8431V64.8221C0.734985 62.7491 2.25696 60.9131 4.52399 60.9131C5.797 60.9131 6.586 61.2801 7.34198 61.9181L6.79095 62.5651C6.20795 62.0581 5.56 61.7021 4.49097 61.7021C2.81799 61.7021 1.62 63.1161 1.62 64.8001V64.8221C1.62 66.6241 2.77496 67.9641 4.60999 67.9641C5.474 67.9641 6.27295 67.6281 6.79095 67.2071V65.3291H4.49097V64.5621H7.61096V67.5741C6.90997 68.2011 5.85199 68.7301 4.578 68.7301C2.203 68.7301 0.734985 67.0021 0.734985 64.8431Z" fill="white"/>
<path d="M10.229 64.8431V64.8221C10.229 62.7371 11.795 60.9131 14.094 60.9131C16.393 60.9131 17.937 62.7171 17.937 64.8001C17.948 64.8101 17.948 64.8101 17.937 64.8221C17.937 66.9061 16.3719 68.7301 14.072 68.7301C11.7729 68.7301 10.229 66.9261 10.229 64.8431ZM17.052 64.8431V64.8221C17.052 63.1051 15.799 61.7021 14.072 61.7021C12.345 61.7021 11.114 63.0841 11.114 64.8001V64.8221C11.114 66.5381 12.366 67.9411 14.094 67.9411C15.821 67.9411 17.052 66.5591 17.052 64.8431Z" fill="white"/>
<path d="M20.771 61.043H23.988C24.851 61.043 25.531 61.2919 25.963 61.712C26.276 62.0359 26.449 62.436 26.449 62.9219V62.9429C26.449 63.925 25.844 64.433 25.251 64.692C26.147 64.962 26.87 65.48 26.87 66.5159V66.538C26.87 67.834 25.78 68.6 24.128 68.6H20.771V61.043ZM23.847 64.4109C24.873 64.4109 25.586 63.947 25.586 63.061V63.041C25.586 62.295 24.992 61.809 23.912 61.809H21.613V64.4109H23.847ZM24.15 67.834C25.294 67.834 26.007 67.325 26.007 66.4839V66.462C26.007 65.642 25.316 65.1669 23.998 65.1669H21.613V67.834H24.15Z" fill="white"/>
<path d="M29.67 61.043H30.5229V68.6H29.67V61.043Z" fill="white"/>
<path d="M33.764 61.043H39.226V61.821H34.617V64.4H38.741V65.1769H34.617V67.822H39.28V68.6H33.764V61.043Z" fill="white"/>
<path d="M42.027 61.043H45.277C46.205 61.043 46.95 61.324 47.425 61.798C47.792 62.165 48.008 62.694 48.008 63.2889V63.3099C48.008 64.562 47.144 65.296 45.957 65.512L48.278 68.6H47.231L45.039 65.663H45.017H42.88V68.6H42.027V61.043ZM45.201 64.897C46.335 64.897 47.144 64.314 47.144 63.342V63.321C47.144 62.3929 46.4319 61.8309 45.212 61.8309H42.88V64.897H45.201Z" fill="white"/>
<path d="M50.862 61.043H51.6609L56.422 67.0989V61.043H57.253V68.6H56.573L51.693 62.403V68.6H50.862V61.043Z" fill="white"/>
<path d="M60.086 64.8431V64.8221C60.086 62.7371 61.652 60.9131 63.951 60.9131C66.251 60.9131 67.794 62.7171 67.794 64.8001C67.805 64.8101 67.805 64.8101 67.794 64.8221C67.794 66.9061 66.229 68.7301 63.93 68.7301C61.63 68.7301 60.086 66.9261 60.086 64.8431ZM66.909 64.8431V64.8221C66.909 63.1051 65.657 61.7021 63.93 61.7021C62.203 61.7021 60.972 63.0841 60.972 64.8001V64.8221C60.972 66.5381 62.224 67.9411 63.951 67.9411C65.678 67.9411 66.909 66.5591 66.909 64.8431Z" fill="white"/>
<path d="M74.895 61.043H77.518C79.893 61.043 81.534 62.673 81.534 64.8V64.822C81.534 66.949 79.893 68.6 77.518 68.6H74.895V61.043ZM77.518 67.812C79.429 67.812 80.6479 66.5159 80.6479 64.843V64.822C80.6479 63.1479 79.429 61.8309 77.518 61.8309H75.7469V67.812H77.518Z" fill="white"/>
<path d="M84.367 61.043H89.83V61.821H85.22V64.4H89.344V65.1769H85.22V67.822H89.884V68.6H84.367V61.043Z" fill="white"/>
<path d="M96.896 61.043H97.749V67.812H102.003V68.6H96.896V61.043Z" fill="white"/>
<path d="M107.405 60.9893H108.203L111.647 68.6003H110.729L109.845 66.6023H105.731L104.835 68.6003H103.961L107.405 60.9893ZM109.509 65.8362L107.793 61.9833L106.066 65.8362H109.509Z" fill="white"/>
<path d="M26.9232 9.73736C26.9232 9.56636 27.0618 9.42773 27.2328 9.42773H28.238C28.409 9.42773 28.5476 9.56636 28.5476 9.73736V15.1048C28.5476 15.2759 28.4089 15.4146 28.2378 15.4146H27.2328C27.0618 15.4146 26.9232 15.276 26.9232 15.105V9.73736Z" fill="white"/>
<path d="M29.5348 9.73736C29.5348 9.56636 29.6734 9.42773 29.8444 9.42773H30.8494C31.0204 9.42773 31.159 9.56636 31.159 9.73736V15.1048C31.159 15.2759 31.0203 15.4146 30.8492 15.4146H29.8444C29.6734 15.4146 29.5348 15.276 29.5348 15.1051V9.73736Z" fill="white"/>
<path d="M24.2964 9.73754C24.2964 9.56644 24.4352 9.42773 24.6063 9.42773H25.6112C25.7822 9.42773 25.9208 9.56636 25.9208 9.73736V15.1048C25.9208 15.2759 25.7821 15.4146 25.611 15.4146H24.6061C24.4351 15.4146 24.2964 15.276 24.2964 15.105V9.73754Z" fill="white"/>
<path d="M22.3889 8.42214C22.3889 8.32707 22.466 8.25 22.5611 8.25H32.8863C32.9813 8.25 33.0584 8.32704 33.0584 8.42208V9.07786C33.0584 9.17293 32.9813 9.25 32.8862 9.25H22.561C22.466 9.25 22.3889 9.17296 22.3889 9.07792V8.42214Z" fill="white"/>
<path d="M37.571 18.5329C37.908 18.7819 38.294 19.0789 38.72 19.4289C39.707 20.2419 40.537 21.0829 41.285 21.8719C43.736 24.4609 45.095 26.9169 46.43 29.5409C47.171 30.9959 47.649 32.3489 48.072 33.5539C48.152 33.7819 48.827 35.6419 49.253 37.7689C49.751 40.2589 50.003 43.0509 50.003 43.0509L53.825 43.0518L53.818 42.9899L53.967 43.0459L53.966 43.0169C53.546 31.4889 46.295 21.7069 36.143 17.6049L36.104 17.5889C36.104 17.5889 36.485 17.7889 36.948 18.1049C37.136 18.2329 37.35 18.3799 37.571 18.5329Z" fill="white"/>
<path d="M47.423 42.976C47.3979 42.69 47.356 42.411 47.325 42.127C47.11 39.658 46.548 36.198 45.134 32.719C44.7599 31.8 44.341 30.88 43.838 29.978C43.7 29.731 43.555 29.497 43.413 29.259C40.7 24.253 36.836 20.422 32.336 18.466L32.339 18.469L32.321 18.458L32.353 18.5C32.353 18.5 33.6479 19.748 34.797 21.545C37.628 25.976 39.571 31.158 40.235 37.562C40.5099 40.222 40.495 42.323 40.476 41.793C40.489 42.169 40.503 42.782 40.508 42.9901L40.493 43.067L41.288 43.064L47.397 43.046L47.396 43.041H47.429L47.423 42.976Z" fill="white"/>
<path d="M31.73 7.7059C31.712 5.4429 29.966 3.61691 27.803 3.57791V2.90289H28.888V2.78589L28.891 2.7829V2.3829C28.891 2.36288 28.874 2.34689 28.854 2.34689H28.693C28.673 2.34689 28.656 2.36288 28.656 2.3829V2.77689H27.803V1.23291H27.826C27.851 1.23291 27.8719 1.21289 27.8719 1.18689V0.759888C27.8719 0.733887 27.851 0.712891 27.826 0.712891H27.637C27.611 0.712891 27.591 0.733887 27.591 0.759888V1.18689C27.591 1.21289 27.611 1.23291 27.637 1.23291H27.664V2.77689H26.8V2.3829C26.8 2.36288 26.783 2.34689 26.763 2.34689H26.602C26.581 2.34689 26.565 2.36288 26.565 2.3829V2.7829L26.567 2.78491V2.90289H27.664V3.57889C25.498 3.6189 23.75 5.45291 23.74 7.72189V7.74091H31.73V7.7059Z" fill="white"/>
<path d="M22.3889 16.218C22.3889 16.1229 22.466 16.0459 22.561 16.0459H32.8863C32.9813 16.0459 33.0584 16.1229 33.0584 16.218V16.8738C33.0584 16.9689 32.9813 17.0459 32.8863 17.0459H22.5611C22.466 17.0459 22.3889 16.9688 22.3889 16.8738V16.218Z" fill="white"/>
<path d="M29.1949 19.0339C29.158 19.0019 29.085 18.9399 29.085 18.9399L29.0829 43.05L37.927 43.0809C37.927 43.0809 37.929 42.8309 37.929 42.7059C37.929 32.4259 34.387 23.5019 29.1949 19.0339Z" fill="white"/>
<path d="M47.1656 47.0549C47.1656 46.8838 47.3043 46.7451 47.4754 46.7451H49.8124C49.9835 46.7451 50.1222 46.8838 50.1222 47.0549V49.3907C50.1222 49.5618 49.9835 49.7004 49.8125 49.7004H47.4754C47.3043 49.7004 47.1656 49.5618 47.1656 49.3907V47.0549Z" fill="white"/>
<path d="M14.8086 47.052C14.8086 46.8809 14.9473 46.7422 15.1184 46.7422H17.4564C17.6275 46.7422 17.7662 46.8809 17.7662 47.052V49.3899C17.7662 49.561 17.6275 49.6998 17.4564 49.6998H15.1184C14.9473 49.6998 14.8086 49.561 14.8086 49.3899V47.052Z" fill="white"/>
<path d="M37.7192 47.0549C37.7192 46.8838 37.8579 46.7451 38.029 46.7451H40.3661C40.5372 46.7451 40.6759 46.8838 40.6759 47.0549V49.3907C40.6759 49.5618 40.5372 49.7004 40.3661 49.7004H38.029C37.8579 49.7004 37.7192 49.5617 37.7192 49.3906V47.0549Z" fill="white"/>
<path d="M26.2633 47.052C26.2633 46.8809 26.402 46.7422 26.5731 46.7422H28.9111C29.0822 46.7422 29.2209 46.8809 29.2209 47.052V49.39C29.2209 49.5611 29.0822 49.6998 28.9111 49.6998H26.5731C26.402 49.6998 26.2633 49.5611 26.2633 49.39V47.052Z" fill="white"/>
<path d="M55.326 45.0171H55.192L55.189 45.0151H50.124V44.1351C50.124 43.9921 50.008 43.8761 49.865 43.8761H47.427C47.284 43.8761 47.168 43.9921 47.168 44.1351V45.0151H40.678V44.1351C40.678 43.9921 40.562 43.8761 40.418 43.8761H37.98C37.837 43.8761 37.7209 43.9921 37.7209 44.1351V45.0151H29.219V44.1301C29.219 43.9871 29.103 43.8711 28.96 43.8711H26.521C26.378 43.8711 26.262 43.9871 26.262 44.1301V45.0151H17.764V44.1301C17.764 43.9871 17.6479 43.8711 17.505 43.8711H15.066C14.923 43.8711 14.8069 43.9871 14.8069 44.1301V45.0151H8.315V44.1301C8.315 43.9871 8.19897 43.8711 8.05499 43.8711H5.617C5.474 43.8711 5.35699 43.9871 5.35699 44.1301V45.0151H0.315002L0.311951 45.0171H0.171997C0.0769653 45.0171 0 45.0941 0 45.1891V45.6531C0 45.7481 0.0769653 45.8251 0.171997 45.8251H55.326C55.421 45.8251 55.499 45.7481 55.499 45.6531V45.5101V45.3251V45.1891C55.499 45.0941 55.421 45.0171 55.326 45.0171Z" fill="white"/>
<path d="M5.35925 47.052C5.35925 46.8809 5.49796 46.7422 5.66906 46.7422H8.00707C8.17817 46.7422 8.31688 46.8809 8.31688 47.052V49.39C8.31688 49.5611 8.1782 49.6998 8.00713 49.6998H5.66906C5.49796 49.6998 5.35925 49.561 5.35925 49.3899V47.052Z" fill="white"/>
<path d="M26.416 43.0638L26.414 18.9468C26.414 18.9468 26.341 19.0088 26.304 19.0398C21.112 23.5088 17.571 32.4358 17.571 42.7188C17.571 42.8448 17.572 43.0938 17.572 43.0938L26.416 43.0638Z" fill="white"/>
<path d="M1.67499 43.0647H3.10999L4.45697 43.0697L4.45795 43.0647H5.49695C5.49695 43.0647 5.74896 40.2717 6.24695 37.7797C6.672 35.6527 7.34698 33.7927 7.427 33.5647C7.85095 32.3587 8.32898 31.0057 9.06897 29.5497C10.404 26.9257 11.763 24.4687 14.215 21.8797C14.962 21.0897 15.793 20.2487 16.779 19.4357C17.204 19.0847 17.59 18.7887 17.927 18.5407C18.149 18.3867 18.363 18.2387 18.551 18.1107C19.014 17.7947 19.395 17.5947 19.395 17.5947L19.356 17.6107C9.20496 21.7137 1.953 31.4987 1.534 43.0297L1.53296 43.0587L1.67499 43.0597V43.0647Z" fill="white"/>
<path d="M20.703 21.5529C21.851 19.7549 23.146 18.5069 23.146 18.5069L23.178 18.4639L23.1609 18.4749L23.163 18.4719C18.663 20.4289 14.798 24.2619 12.086 29.2689C11.944 29.5069 11.799 29.7409 11.6609 29.9879C11.159 30.8899 10.74 31.8099 10.366 32.7289C8.95099 36.2089 8.38995 39.6699 8.17499 42.1389C8.14301 42.4229 8.10095 42.7029 8.07599 42.9889L8.07098 43.0548H8.10297V43.0589L14.021 43.0769L15.006 43.0808L14.991 43.0029C14.996 42.7959 15.0099 42.1819 15.0229 41.8059C15.005 42.3358 14.989 40.2349 15.264 37.5739C15.928 31.1679 17.871 25.9849 20.703 21.5529Z" fill="white"/>
<path d="M0.000244141 50.7053C0.000244141 50.5342 0.138949 50.3955 0.31005 50.3955H55.1882C55.3593 50.3955 55.498 50.5342 55.498 50.7053V52.0031C55.498 52.1742 55.3593 52.3129 55.1882 52.3129H0.310051C0.138951 52.3129 0.000244141 52.1742 0.000244141 52.0031V50.7053Z" fill="white"/>
<path d="M55.2372 98.032L0.0402222 98.0319V95.0347L55.2372 95.0348" fill="white"/>
</svg>
